# xmcd CD database file
#
# Track frame offsets:
#	150
#	12706
#	25303
#	33816
#	43854
#	55707
#	63929
#	73467
#	87407
#	98998
#	111694
#	124193
#	137862
#	149981
#	163338
#	182263
#	196442
#	214422
#	228679
#	239461
#
# Disc length: 3424 seconds
#
# Revision: 0
# Processed by: cddbd v1.5PL3 Copyright (c) Steve Scherf et al.
# Submitted via: CDex 1.51
#
DISCID=430d5e14
DTITLE=Johnny Cash - The Best Of - CD 1
DYEAR=1900
DGENRE=Country
TTITLE0=Folsom Prison Blues (Live)
TTITLE1=I Walk The Line
TTITLE2=Guess Things Happen That Way
TTITLE3=Get Rythm
TTITLE4=I Still Miss Someone
TTITLE5=Five Feet High And Rising
TTITLE6=I Got Stripes
TTITLE7=Don't Take Your Guns To Town
TTITLE8=Ring Of Fire
TTITLE9=Jackson (with June Carter)
TTITLE10=Understand Your Man
TTITLE11=Tennessee Flat-Top Box
TTITLE12=When It's Springtime In Alaska (It's Forty Below)
TTITLE13=San Quentin (Live)
TTITLE14=The Ballad Of Ira Hayes
TTITLE15=The Long Black Veil
TTITLE16=A Boy Named Sue
TTITLE17=Orange Blossom Special
TTITLE18=Daddy Sang Bass
TTITLE19=Where Were You (When They Crucified My Lord)?
EXTD=
EXTT0=
EXTT1=
EXTT2=
EXTT3=
EXTT4=
EXTT5=
EXTT6=
EXTT7=
EXTT8=
EXTT9=
EXTT10=
EXTT11=
EXTT12=
EXTT13=
EXTT14=
EXTT15=
EXTT16=
EXTT17=
EXTT18=
EXTT19=
PLAYORDER=
